<?xml version="1.0" encoding="UTF-8" standalone="no"?>
<!-- Created with Inkscape (http://www.inkscape.org/) -->

<svg
   xmlns:svg="http://www.w3.org/2000/svg"
   xmlns="http://www.w3.org/2000/svg"
   version="1.1"
   width="1095"
   height="770"
   viewBox="0 0 1095 770"
   id="svg4136">
  <defs
     id="defs4140" />
  <path
     d="m 465.70468,652.505 c -1.03901,-1.20313 -2.72835,-5.61369 -3.75409,-9.80124 -1.75182,-7.15184 -1.69175,-8.4727 0.99019,-21.77199 1.65921,-8.22771 3.88181,-15.54686 5.30614,-17.47336 3.77661,-5.10815 11.45941,-20.91838 11.45941,-23.58205 0,-1.3082 0.86865,-4.45754 1.93034,-6.99851 1.86869,-4.4724 8.0432,-25.19349 13.24094,-44.43535 4.92777,-18.24244 7.20717,-35.60484 5.31998,-40.52276 -1.14855,-2.99308 -3.65475,-2.40843 -9.80719,2.28785 -6.52936,4.98396 -11.32772,6.29715 -18.8745,5.16543 -3.83122,-0.57452 -7.34288,-0.14996 -11.7726,1.42334 -5.12483,1.82018 -6.72196,1.95024 -8.48736,0.69113 -6.08496,-4.33988 -15.56756,-4.02035 -27.07499,0.91231 -5.3665,2.30035 -5.72342,2.74989 -5.70548,7.18578 0.01,2.60256 0.53591,5.54881 1.16752,6.54723 1.54061,2.43535 0.5743,3.70927 -2.25284,2.96995 -2.81491,-0.73612 -6.43382,-7.9359 -6.43382,-12.80001 0,-6.51976 3.22631,-12.00236 8.36044,-14.20719 7.97731,-3.42584 14.32117,-4.6388 24.29941,-4.64609 5.25954,-0.004 11.42486,-0.78498 13.75,-1.74212 2.31833,-0.95433 6.7464,-2.14539 9.84015,-2.64681 7.03885,-1.1408 30.96684,-11.21502 34.53655,-14.54064 1.71371,-1.59654 2.9662,-4.77609 3.517,-8.9282 0.7779,-5.86409 1.58473,-7.1463 8.90095,-14.14555 4.42503,-4.2333 8.0455,-8.15156 8.0455,-8.70723 0,-0.55566 -1.19616,-2.28355 -2.65814,-3.83976 -3.69844,-3.93679 -2.35002,-6.09484 5.3815,-8.6128 3.6584,-1.19145 11.15164,-4.27989 16.65164,-6.86319 11.62254,-5.459 16.11484,-7.34288 40.625,-17.03643 15.55949,-6.15364 19.54842,-7.23987 28.18133,-7.674 8.98897,-0.45207 32.38021,2.55663 42.92352,5.52103 2.23174,0.62749 2.83377,0.39962 2.39801,-0.90768 -0.97351,-2.92054 -18.02686,-6.14367 -36.92127,-6.97822 -19.39036,-0.85646 -19.97385,-1.10405 -21.99928,-9.33483 -0.44724,-1.81745 -6.0206,-11.07649 -12.38523,-20.57564 -8.77908,-13.10265 -13.53311,-18.87851 -19.69708,-23.93078 -9.8803,-8.09833 -13.37266,-9.98998 -30.77639,-16.67025 -24.44637,-9.38348 -27.01531,-9.9582 -49.84861,-11.15189 -27.43089,-1.43407 -109.19973,-1.39308 -118.125,0.0592 -8.59746,1.39895 -48.55986,4.86584 -56.63628,4.91342 -3.95492,0.0233 -5.72877,-0.42167 -5.18547,-1.30075 0.45419,-0.73488 6.53425,-4.03222 13.51127,-7.32739 19.80741,-9.35486 23.52832,-10.94951 34.71609,-14.87805 5.75816,-2.02196 20.56028,-7.71571 32.89358,-12.65279 23.38458,-9.36099 46.7072,-17.55566 49.96455,-17.55566 1.04406,0 2.49727,-1.11917 3.22933,-2.48706 0.73208,-1.36789 2.89374,-3.29517 4.80372,-4.28285 6.12489,-3.1673 21.77396,-8.23009 25.43921,-8.23009 1.9526,0 8.46391,-1.9965 14.46959,-4.43667 6.00567,-2.44017 13.59918,-4.95835 16.87447,-5.59598 3.27528,-0.63761 10.02528,-3.09071 15,-5.45132 6.68293,-3.1712 11.45145,-4.49048 18.2603,-5.05197 6.4133,-0.52886 13.08594,-2.27325 21.94485,-5.73691 7.8043,-3.05134 16.57158,-5.46308 22.65964,-6.23333 5.46159,-0.69099 12.4614,-2.05559 15.55515,-3.03247 3.09375,-0.97686 10.96875,-2.68899 17.5,-3.8047 6.53125,-1.11573 16.65625,-3.18823 22.5,-4.60555 5.84375,-1.41731 14.33916,-3.03428 18.8787,-3.59324 4.64441,-0.57187 12.02372,-2.73007 16.875,-4.93536 13.64471,-6.20263 24.62963,-8.77566 37.34618,-8.74775 19.24605,0.0422 53.18268,4.84117 65.49478,9.26151 9.4948,3.40886 12.73928,2.51036 29.08552,-8.05471 l 7.70741,-4.98155 20.62572,0 c 19.93654,0 20.75925,0.10187 24.62229,3.04834 3.87117,2.95269 4.44437,4.31078 7.89099,18.69637 1.07633,4.4924 3.87696,6.36425 7.98095,5.33421 3.99442,-1.00253 33.5122,-32.4793 41.34547,-44.08943 3.19668,-4.73796 7.60575,-11.14574 9.79793,-14.23949 10.61368,-14.9787 18.21653,-29.09555 25.39096,-47.145417 4.3132,-10.85128 8.5402,-21.868086 9.3934,-24.481816 0.8532,-2.61373 2.2012,-4.535605 2.9955,-4.270835 1.7923,0.597435 1.7923,0.600005 -0.2563,12.773061 -0.9256,5.5 -2.666,12.25 -3.8677,15 -1.2016,2.75 -3.7138,9.051617 -5.5826,14.003597 -1.8688,4.95199 -5.036,11.42074 -7.03823,14.37501 -2.00226,2.95427 -3.65071,5.94421 -3.66322,6.64431 -0.0125,0.7001 -2.13213,3.88318 -4.71025,7.07349 -12.4537,15.4109 -14.53243,18.33945 -17.14451,24.1536 -3.50789,7.80808 -27.04874,33.56965 -41.6521,45.58134 -2.89624,2.38225 -5.26589,5.00336 -5.26589,5.82471 0,0.82136 1.78889,-0.002 3.97531,-1.83134 6.40025,-5.35279 39.98463,-39.20366 44.92279,-45.27926 2.4877,-3.06071 9.8002,-10.96555 16.25,-17.56631 15.1044,-15.45795 30.9481,-32.91723 41.062,-45.24921 9.9206,-12.096207 13.7978,-14.710517 13.7814,-9.292437 -0.011,3.8807 -15.4163,22.616907 -38.8822,47.291557 -10.7337,11.28652 -22.93402,24.45845 -27.11189,29.27095 -4.17786,4.8125 -16.42056,17.75 -27.20601,28.75 -10.78545,11 -20.37244,21.78719 -21.30441,23.97153 -0.93199,2.18433 -2.77875,4.31564 -4.10393,4.73623 -3.85897,1.2248 -6.1619,5.99709 -7.02712,14.56208 -0.95437,9.44755 -3.28393,16.11647 -7.61179,21.7906 -2.08416,2.73249 -3.5462,6.82661 -4.29954,12.03999 -1.49915,10.37455 -2.96391,15.17219 -6.2609,20.50682 -3.96662,6.41815 -7.89041,21.35575 -7.68799,29.26775 0.0968,3.78125 0.33416,12.5 0.52758,19.375 0.33489,11.90255 0.15752,12.89951 -3.7108,20.85874 -2.23438,4.5973 -4.0625,9.11922 -4.0625,10.0487 0,1.02141 4.32687,3.0907 10.9375,5.23075 6.01562,1.94743 15.71875,6.15107 21.5625,9.3414 l 10.625,5.80061 0.39844,5.58537 c 0.21915,3.07197 0.96753,6.27109 1.6631,7.10919 2.91782,3.51576 -8.02033,46.50668 -15.57599,61.21929 -1.97094,3.83787 -5.17389,15.21384 -9.69086,34.41925 -3.08588,13.12057 -2.54112,15.98811 3.04586,16.03312 1.4627,0.0113 6.8782,1.12714 12.03445,2.47858 5.15625,1.35144 11.0625,2.47915 13.125,2.50602 6.7331,0.0877 13.9866,4.33224 16.7882,9.82383 3.25612,6.38255 2.36374,15.50685 -1.9373,19.80789 -3.48186,3.48186 -12.15771,4.19202 -10.89119,0.89151 0.41594,-1.08393 2.08579,-2.47625 3.71076,-3.09406 3.00578,-1.1428 4.05992,-5.35448 1.70453,-6.81019 -0.6875,-0.4249 -1.25,-1.76016 -1.25,-2.96725 0,-3.57674 -10.74726,-7.73821 -25.20441,-9.75948 -3.90549,-0.54602 -4.88894,-0.16785 -6.68273,2.56982 l -2.1033,3.21006 -4.56729,-2.35816 c -6.82756,-3.52518 -13.37,-11.14645 -15.09031,-17.57865 -1.45352,-5.43475 -1.30192,-6.1131 4.29356,-19.21231 3.68202,-8.61969 5.54544,-14.59407 5.10245,-16.35907 -0.38381,-1.52924 -2.97633,-5.6421 -5.76118,-9.13971 -8.15285,-10.23955 -20.91109,-15.81618 -24.97677,-10.91734 -2.55476,3.07831 -11.64722,-0.3056 -16.54472,-6.15739 -3.42105,-4.08763 -2.80775,-14.30587 1.70111,-28.34275 2.15403,-6.70585 3.60028,-13.0163 3.21389,-14.02321 -0.44585,-1.16188 -4.04596,-2.37385 -9.85391,-3.31727 -5.03327,-0.81759 -15.01623,-2.88638 -22.18435,-4.59729 -10.96308,-2.61671 -13.87995,-2.89749 -18.36603,-1.76788 -9.51629,2.39623 -13.97411,1.77297 -17.87624,-2.49931 -1.93011,-2.1132 -4.16935,-6.04525 -4.97607,-8.73786 -1.86613,-6.22855 -6.79614,-8.0814 -10.04445,-3.77501 -1.48048,1.96271 -4.04621,3.01977 -8.94238,3.6842 -3.8907,0.52797 -11.448,3.16772 -17.43903,6.09141 -5.81507,2.83781 -14.79159,6.92092 -19.94784,9.0736 -5.15625,2.15266 -10.21875,4.45565 -11.25,5.11775 -1.03125,0.6621 -6.09375,3.17205 -11.25,5.57766 -5.15625,2.40561 -11.46385,5.50903 -14.01688,6.89648 -6.95661,3.78058 -41.493,14.86016 -52.54833,16.85797 -5.9324,1.07204 -12.7188,3.38335 -17.5,5.96014 -4.29539,2.31496 -10.05979,4.92872 -12.80979,5.80837 -2.75,0.87964 -7.8125,3.02565 -11.25,4.76892 -3.4375,1.74326 -7.09375,3.5615 -8.125,4.04053 -1.03125,0.47904 -2.0737,1.93569 -2.31655,3.237 -0.24285,1.30132 -1.24823,3.27728 -2.23418,4.39103 -0.98593,1.11375 -3.15703,7.02 -4.82465,13.125 -1.66761,6.105 -4.73703,17.2875 -6.82096,24.85 -2.08392,7.5625 -3.8002,15.4375 -3.81395,17.5 -0.0138,2.0625 -1.98599,9.62666 -4.38275,16.80925 -2.39676,7.18259 -5.20029,17.13821 -6.23005,22.12361 -2.2078,10.68868 -3.76721,14.53891 -8.27941,20.44214 -1.83924,2.40625 -3.73713,5.78125 -4.21751,7.5 -0.48039,1.71875 -3.09487,6.34551 -5.80994,10.28169 -6.54149,9.48351 -9.55803,20.54318 -8.68598,31.84576 0.0637,0.82635 2.64718,3.244 5.74093,5.37255 3.09375,2.12855 5.625,4.46656 5.625,5.19556 0,2.13509 -6.29521,-0.0125 -11.7107,-3.99514 -2.70376,-1.98836 -5.39369,-3.31992 -5.97761,-2.95903 -1.73949,1.07506 -1.20614,7.24611 0.88418,10.23047 1.6045,2.29074 1.63849,2.77814 0.19374,2.77814 -0.96367,0 -2.60225,-0.98437 -3.64126,-2.1875 z M 854.68639,445.14195 c 7.01686,-20.70859 7.00214,-20.84701 -2.38472,-22.41381 -2.45869,-0.41039 -6.15784,-1.24262 -8.22034,-1.8494 -5.52306,-1.62489 -23.16873,-3.591 -25.20745,-2.80867 -2.36681,0.90823 -4.45398,5.26854 -8.37813,17.50282 -4.91062,15.30977 -4.21277,19.1006 3.52308,19.13808 12.03737,0.0584 28.30106,7.04659 29.97144,12.87827 0.7679,2.68086 0.81292,2.67092 2.59193,-0.57229 0.99575,-1.8153 4.64264,-11.65905 8.10419,-21.875 z M 812.9595,376.23586 c 0.758,-0.5051 2.38962,-4.01211 3.6258,-7.79336 1.23619,-3.78125 3.56914,-8.8337 5.18433,-11.22766 3.69989,-5.48385 3.67667,-6.27234 -0.1847,-6.27234 -3.85589,0 -12.89528,7.90489 -15.12248,13.22451 -0.88642,2.11723 -2.48793,4.57673 -3.5589,5.46555 -2.00016,1.65998 -2.59405,5.24644 -1.11388,6.7266 1.11995,1.11995 9.44195,1.02809 11.16983,-0.12325 z M 241.58133,525.93268 c -4.8125,-0.49127 -9.63924,-1.27619 -10.72609,-1.74431 -1.08685,-0.46809 -5.54092,-1.24928 -9.89795,-1.73598 -4.75039,-0.53063 -8.1393,-1.53976 -8.46501,-2.52068 -0.29873,-0.89968 1.76197,-3.76387 4.57935,-6.36486 2.81737,-2.60099 6.57626,-7.48987 8.35307,-10.86421 4.02145,-7.63712 10.02358,-13.92147 19.12425,-20.02352 13.31323,-8.92658 14.89767,-11.78733 10.83842,-19.56914 -0.99197,-1.90165 -2.38533,-7.6402 -3.09635,-12.75236 -2.2429,-16.12579 1.49271,-27.52617 12.54811,-38.29447 3.36446,-3.27709 6.1172,-6.61259 6.1172,-7.41222 0,-1.04519 2.19617,-1.20332 7.8125,-0.5625 9.07891,1.03587 30.56314,4.84135 37.8125,6.69768 8.97499,2.2982 16.00225,3.72193 31.875,6.45784 8.72141,1.50328 19.76715,4.36398 25,6.47469 17.50342,7.06012 45.45279,15.02535 80,22.799 7.90625,1.77902 19.15625,4.34587 25,5.70411 5.84375,1.35824 12.3125,2.79944 14.375,3.20265 l 3.75,0.73314 -3.125,1.64155 c -5.48505,2.88129 -30.45098,9.66693 -35.34625,9.60698 -2.59669,-0.0317 -6.61519,0.73354 -8.93,1.70073 -6.63669,2.77299 -33.45751,9.51346 -35.19766,8.84571 -0.86437,-0.33168 -7.56338,2.45538 -14.88669,6.19347 -11.90286,6.07565 -14.14076,6.79652 -21.0993,6.79652 -6.91882,0 -9.13718,0.70377 -19.95498,6.33073 -9.70878,5.05008 -13.93095,6.51879 -20.87188,7.26043 -5.66549,0.60535 -9.91584,1.82781 -12.18301,3.504 -10.97453,8.11383 -28.8367,13.97708 -47.15523,15.47869 -7.5625,0.61991 -16,1.68722 -18.75,2.37181 -2.75,0.68459 -5.84375,1.17563 -6.875,1.0912 -1.03125,-0.0844 -5.8125,-0.55542 -10.625,-1.04669 z m 240,-75.75028 c -3.4375,-0.9826 -11.03125,-2.85767 -16.875,-4.16684 -38.13654,-8.54361 -74.17728,-18.48256 -87.27725,-24.06846 -6.40875,-2.73271 -15.18873,-5.46939 -19.51106,-6.08151 -4.32235,-0.61213 -11.15014,-1.97023 -15.17288,-3.01801 -4.02272,-1.04779 -8.74275,-1.91038 -10.48893,-1.91687 -1.74618,-0.006 -8.51863,-1.43583 -15.04988,-3.17636 -6.53125,-1.74051 -20.59375,-4.22934 -31.25,-5.53071 -10.65625,-1.30136 -22.1875,-2.97528 -25.625,-3.71979 -6.61586,-1.4329 -29.09999,-2.24886 -40.625,-1.47431 -10.26774,0.69006 -33.81388,-3.09536 -36.60304,-5.88453 -1.2528,-1.2528 -3.514,-5.88482 -5.02489,-10.29338 -2.3746,-6.92877 -3.37825,-8.3127 -7.40222,-10.20695 -6.71125,-3.15928 -8.11151,-6.2352 -8.79662,-19.32325 -0.50841,-9.71238 -0.24018,-12.09069 1.72876,-15.32837 2.32792,-3.82796 2.32704,-3.83532 -0.78572,-6.54183 -3.54148,-3.07929 -4.06304,-6.62794 -1.13903,-7.74999 1.08748,-0.41731 5.5473,-0.75874 9.91071,-0.75874 5.38531,0 8.53571,-0.60224 9.80848,-1.875 2.34926,-2.34926 5.99157,-2.35051 21.53748,-0.007 17.73371,2.6729 23.89524,2.52001 24.89109,-0.61762 0.74595,-2.3503 1.89129,-2.5 19.12715,-2.5 10.08351,0 24.52999,-0.83309 32.10326,-1.85132 7.57328,-1.01822 27.83209,-2.40588 45.01959,-3.0837 17.1875,-0.67782 34.34375,-1.77241 38.125,-2.43243 8.64873,-1.50965 132.09571,-1.76942 137.00097,-0.28829 1.99322,0.60184 6.71778,1.78412 10.49903,2.6273 3.78125,0.84317 11.65625,3.35221 17.5,5.57564 5.84375,2.22342 13.31521,5.03216 16.60325,6.24163 9.59717,3.53025 24.66625,15.73767 31.33598,25.38518 13.32678,19.27671 17.11622,25.445 19.52442,31.78107 1.3943,3.66845 2.53537,6.78422 2.53572,6.92393 10e-4,0.56891 -12.57102,5.86464 -23.12437,9.74037 -11.63729,4.27383 -31.57643,12.77748 -39.5759,16.87835 -2.51675,1.29019 -6.8027,2.94542 -9.52433,3.67828 -5.51913,1.48565 -11.52477,5.68265 -11.52477,8.05351 0,0.85171 1.125,2.75611 2.5,4.23201 3.49902,3.75577 3.21931,4.61605 -2.93874,9.03843 -2.99131,2.1482 -6.68355,6.12065 -8.20499,8.82767 -2.72918,4.85594 -2.86143,4.92037 -9.87375,4.81009 -3.90913,-0.0614 -9.92002,-0.91559 -13.35752,-1.8982 z M 211.38734,317.19739 c -1.4817,-0.59767 -8.2317,-1.43818 -15,-1.86783 -16.68133,-1.05892 -17.14186,-1.20319 -19.47759,-6.10126 -1.12572,-2.36065 -4.33201,-6.12857 -7.12509,-8.37315 -5.7394,-4.61231 -6.20415,-7.05415 -3.21686,-16.90149 2.50245,-8.2491 2.37009,-10.46243 -0.82936,-13.8681 l -2.71789,-2.89306 2.92377,-3.11222 c 1.60808,-1.71172 6.02055,-4.27087 9.80548,-5.68699 6.39882,-2.39411 8.49273,-2.51335 29.84119,-1.69944 16.61371,0.63341 24.76029,0.44802 29.47491,-0.67076 5.86392,-1.39153 7.45288,-1.26109 15.89043,1.30444 8.95813,2.7238 11.57216,2.86934 58.78588,3.27317 51.29143,0.4387 54.93738,0.20103 90.58912,-5.90523 8.87176,-1.51951 26.875,-1.52149 26.875,-0.002 0,0.68751 -0.77047,1.25 -1.71216,1.25 -2.68143,0 -14.77089,4.21582 -35.16284,12.26193 -30.37885,11.98666 -34.4681,13.57949 -45.625,17.77168 -16.28126,6.11764 -37.62886,16.13222 -42.5,19.93757 -5.2989,4.13951 -12.32799,5.00181 -50,6.13383 -25.02649,0.75201 -25.65382,0.83568 -26.85891,3.58249 -0.99497,2.26787 -2.20528,2.79717 -6.25,2.73327 -2.75885,-0.0436 -6.22839,-0.56823 -7.71008,-1.16588 z"
     id="path4146"
     style="fill:#000000" />
</svg>
